<!DOCTYPE svg PUBLIC "-//W3C//DTD SVG 1.1//EN" "http://www.w3.org/Graphics/SVG/1.1/DTD/svg11.dtd">
<!-- Uploaded to: SVG Repo, www.svgrepo.com, Transformed by: SVG Repo Mixer Tools -->
<svg fill="#ffffff" height="256px" width="256px" version="1.1" id="Layer_1" xmlns="http://www.w3.org/2000/svg" xmlns:xlink="http://www.w3.org/1999/xlink" viewBox="-168.96 -168.96 849.92 849.92" xml:space="preserve" stroke="#ffffff" stroke-width="8.192">
<g id="SVGRepo_bgCarrier" stroke-width="0" transform="translate(0,0), scale(1)">
<path transform="translate(-168.96, -168.96), scale(26.56)" d="M16,28.759639011962072C18.57418243072094,28.46897847980055,20.436389520661514,26.47277031925177,22.71925592835508,25.248262378806682C25.498579161678254,23.757459694603106,29.348151702391288,23.60588139549106,30.814219668901206,20.813431754746926C32.30522157802065,17.97348992354995,31.06256983172226,14.476014488910266,29.955282957544355,11.465653700590437C28.883383653462737,8.551500458748446,27.266779891684116,5.767465297859003,24.659625516549013,4.081048000971091C22.130848438834768,2.445328442320106,19.00659643060644,2.2636605056871493,16,2.4387887067028444C13.143613582921581,2.605167476243162,10.366345843572404,3.3781840570637653,8.0435604171421,5.048900406833178C5.7124786322289705,6.725584101499406,4.046290130442931,9.101194647266816,3.0127284987303096,11.780179688913169C1.9309661993123712,14.58410054843227,1.1178322626189214,17.67562121875625,2.0727343051010756,20.52524293894153C3.0237920040044677,23.36339235676015,5.503170202806736,25.377865077823547,8.07977006492056,26.90126128861791C10.47262690517296,28.31602075399463,13.237749274080482,29.071535036259952,16,28.759639011962072" fill="#ea4335" strokewidth="0"/>
</g>
<g id="SVGRepo_tracerCarrier" stroke-linecap="round" stroke-linejoin="round"/>
<g id="SVGRepo_iconCarrier"> <g> <g> <path d="M410.272,243.145c-3.63-4.486-10.211-5.179-14.695-1.548l-3.636,2.942c-4.485,3.631-5.177,10.211-1.546,14.696 c2.066,2.551,5.083,3.875,8.128,3.875c2.309,0,4.634-0.762,6.568-2.328l3.635-2.942 C413.21,254.209,413.903,247.63,410.272,243.145z"/> </g> </g> <g> <g> <path d="M380.363,267.357c-3.63-4.486-10.211-5.179-14.695-1.549l-74.708,59.674c-4.485,3.631-5.177,10.21-1.546,14.695 c2.064,2.551,5.082,3.875,8.127,3.875c2.309,0,4.634-0.762,6.568-2.327l74.708-59.674 C383.301,278.421,383.994,271.843,380.363,267.357z"/> </g> </g> <g> <g> <path d="M449.742,62.685H62.258C27.929,62.685,0,90.614,0,124.942v262.117c0,34.329,27.929,62.257,62.258,62.257h387.484 c34.33,0,62.258-27.928,62.258-62.257V124.942C512,90.614,484.072,62.685,449.742,62.685z M419.912,83.582L255.859,216.19 L91.806,83.582H419.912z M428.126,428.418H83.592V184.382l165.712,133.49c3.826,3.082,9.284,3.082,13.11,0l165.711-133.49V428.418 z M491.102,387.058c0,22.806-18.554,41.359-41.36,41.359h-0.717v-265.87c0-4.023-2.309-7.688-5.939-9.425 c-3.632-1.738-7.934-1.235-11.065,1.288L255.859,296.318L79.697,154.41c-3.134-2.523-7.438-3.026-11.065-1.288 c-3.63,1.737-5.939,5.402-5.939,9.425v265.87h-0.436c-22.805,0.001-41.359-18.553-41.359-41.358V124.942 c0-21.626,16.688-39.418,37.861-41.2l190.532,154.012c1.915,1.549,4.242,2.323,6.568,2.323c2.327,0,4.653-0.774,6.568-2.323 L452.983,83.721c21.295,1.66,38.119,19.507,38.119,41.22V387.058z"/> </g> </g> </g>
</svg>