<!DOCTYPE svg PUBLIC "-//W3C//DTD SVG 1.1//EN" "http://www.w3.org/Graphics/SVG/1.1/DTD/svg11.dtd">
<!-- Uploaded to: SVG Repo, www.svgrepo.com, Transformed by: SVG Repo Mixer Tools -->
<svg width="256px" height="256px" viewBox="-11.8 -11.8 43.60 43.60" version="1.1" xmlns="http://www.w3.org/2000/svg" xmlns:xlink="http://www.w3.org/1999/xlink" fill="#ffffff" stroke="#ffffff">
<g id="SVGRepo_bgCarrier" stroke-width="0" transform="translate(0,0), scale(1)">
<path transform="translate(-11.8, -11.8), scale(1.3625)" d="M16,28.225207203013056C18.660218629627146,28.422396407954224,21.360446664001795,29.182458582326728,23.840430426058294,28.19994788014749C26.563873053137925,27.120984554332008,29.038900732249683,25.173655864563628,30.33434961375767,22.546278123002867C31.644768754966496,19.888538297932044,32.019801153614395,16.60458439772821,30.91289923367199,13.8558487896637C29.866538761582582,11.257453903282986,26.517373339396563,10.593067983924868,24.67215831828573,8.485532041411062C22.841464513521707,6.394581691920173,22.877394061445617,2.4418681459819482,20.216741915005873,1.639095870375085C17.560756326600284,0.8377315892019703,15.122289653654327,3.4690681901568357,12.736101840870356,4.884183690418045C10.879728500201018,5.985095644866404,9.4839559993448,7.521343740591979,7.874075269410858,8.958846139470847C5.988518311722258,10.642506673758575,3.46037210817937,11.72990402642058,2.46648959313103,14.05417496193716C1.3600075565312517,16.641768565206227,0.919432103882935,19.794485927445496,2.160603518093769,22.320240601506868C3.3961787808572304,24.834607238820755,6.2958031861475625,25.990992834919762,8.872597692420403,27.090454471009107C11.131061914839998,28.0540915646873,13.551263569524671,28.043694155755137,16,28.225207203013056" fill="#0077b5" strokewidth="0"/>
</g>
<g id="SVGRepo_tracerCarrier" stroke-linecap="round" stroke-linejoin="round" stroke="#CCCCCC" stroke-width="0.12"/>
<g id="SVGRepo_iconCarrier"> <title>linkedin [#ffffff]</title> <desc>Created with Sketch.</desc> <defs> </defs> <g id="Page-1" stroke-width="0.0002" fill="none" fill-rule="evenodd"> <g id="Dribbble-Light-Preview" transform="translate(-180.000000, -7479.000000)" fill="#ffffff"> <g id="icons" transform="translate(56.000000, 160.000000)"> <path d="M144,7339 L140,7339 L140,7332.001 C140,7330.081 139.153,7329.01 137.634,7329.01 C135.981,7329.01 135,7330.126 135,7332.001 L135,7339 L131,7339 L131,7326 L135,7326 L135,7327.462 C135,7327.462 136.255,7325.26 139.083,7325.26 C141.912,7325.26 144,7326.986 144,7330.558 L144,7339 L144,7339 Z M126.442,7323.921 C125.093,7323.921 124,7322.819 124,7321.46 C124,7320.102 125.093,7319 126.442,7319 C127.79,7319 128.883,7320.102 128.883,7321.46 C128.884,7322.819 127.79,7323.921 126.442,7323.921 L126.442,7323.921 Z M124,7339 L129,7339 L129,7326 L124,7326 L124,7339 Z" id="linkedin-[#ffffff]"> </path> </g> </g> </g> </g>
</svg>