<!DOCTYPE svg PUBLIC "-//W3C//DTD SVG 1.1//EN" "http://www.w3.org/Graphics/SVG/1.1/DTD/svg11.dtd">
<!-- Uploaded to: SVG Repo, www.svgrepo.com, Transformed by: SVG Repo Mixer Tools -->
<svg width="256px" height="256px" viewBox="-24 -24 96.00 96.00" id="a" xmlns="http://www.w3.org/2000/svg" fill="#ffffff" stroke="#ffffff" stroke-width="1.9200000000000004" transform="matrix(1, 0, 0, 1, 0, 0)rotate(0)">
<g id="SVGRepo_bgCarrier" stroke-width="0" transform="translate(4.799999999999997,4.799999999999997), scale(0.8)">
<path transform="translate(-24, -24), scale(3)" d="M16,31.05550725137194C18.59088429778453,31.07652962350896,19.606835444826295,27.42881948828958,21.865414791430034,26.159196426222834C24.162533975841335,24.867908831111286,27.774751390393213,25.83664184006085,29.2125686711801,23.628280078992248C30.630501625120203,21.450458907218135,28.93505496591128,18.558559818413528,28.47985108445088,16C28.097115584434082,13.848762474780065,27.570534611738033,11.818403208829583,26.751055037708014,9.792875479906801C25.817057223752894,7.4842902132652975,25.52404921520836,4.483138361684597,23.337869261081025,3.290437620509781C21.14524091410787,2.0942188693412893,18.49525637961473,4.0381862029075615,16,3.9274885579943657C13.346303894225082,3.8097620142914863,10.537133458440172,1.227678418601377,8.276358368496105,2.622260274781066C5.9935432761791105,4.030437728132786,6.942900956477139,7.696206790424822,5.890799674559551,10.163450470815096C4.997684704659719,12.257861249719475,2.6438643168144296,13.724257085022238,2.571718317766985,15.999999999999998C2.4993903849830534,18.281481755901332,4.136262091671844,20.234112814192716,5.513837413151197,22.054188792283327C6.774451588797683,23.71973371237578,8.604314156987815,24.703919609987032,10.189283284669116,26.064456579342817C12.160285284272707,27.756364036908177,13.40250976310073,31.03443127880571,16,31.05550725137194" fill="#ff6719" strokewidth="0"/>
</g>
<g id="SVGRepo_tracerCarrier" stroke-linecap="round" stroke-linejoin="round" stroke="#CCCCCC" stroke-width="1.7280000000000002">
<defs>
<style>.b{fill:none;stroke:#ffffff;stroke-linecap:round;stroke-linejoin:round;}</style>
</defs>
<path class="b" d="m40.0248,10.0817v-4.5814c-.3229,0-.7411-.0004-1.6553-.0004l-28.9669.0004c-.9142,0-1.318,0-1.6553,0v4.5814c.2164,0,.7411.0005,1.6553.0005l28.9669-.0005c.9142,0,1.4122,0,1.6553,0Z"/>
<path class="b" d="m40.0248,18.3503v-4.5814H9.4025c-.9142,0-1.3777,0-1.6553,0v4.5814c.2646,0,.7411,0,1.6553,0h30.6223Z"/>
<path class="b" d="m40.2557,42.4999v-20.1821c0-.1633-.9724-.1077-1.8866-.1077H9.4022c-.9142,0-1.6553-.0555-1.6553.1077v19.8878c.2814-.1622,15.3415-8.2118,16.1691-8.5978.5156.2972,13.6461,7.3385,16.3406,8.8914l-.0008.0007Z"/>
</g>
<g id="SVGRepo_iconCarrier">
<defs>
<style>.b{fill:none;stroke:#ffffff;stroke-linecap:round;stroke-linejoin:round;}</style>
</defs>
<path class="b" d="m40.0248,10.0817v-4.5814c-.3229,0-.7411-.0004-1.6553-.0004l-28.9669.0004c-.9142,0-1.318,0-1.6553,0v4.5814c.2164,0,.7411.0005,1.6553.0005l28.9669-.0005c.9142,0,1.4122,0,1.6553,0Z"/>
<path class="b" d="m40.0248,18.3503v-4.5814H9.4025c-.9142,0-1.3777,0-1.6553,0v4.5814c.2646,0,.7411,0,1.6553,0h30.6223Z"/>
<path class="b" d="m40.2557,42.4999v-20.1821c0-.1633-.9724-.1077-1.8866-.1077H9.4022c-.9142,0-1.6553-.0555-1.6553.1077v19.8878c.2814-.1622,15.3415-8.2118,16.1691-8.5978.5156.2972,13.6461,7.3385,16.3406,8.8914l-.0008.0007Z"/>
</g>
</svg>